<svg version="1.0" xmlns="http://www.w3.org/2000/svg" width="100" height="100" xml:space="preserve"><path fill="#8BC34A" d="m29.793 29.365-13.127 7.578V51.51l6.667 3.847V40.792l13.125-7.579z"/><path fill="#263238" d="M10 55.357v23.094L30 90V66.904L10 55.357zm13.333 23.094-6.667-3.848v-7.699l6.667 3.848v7.699zM49.999 10 29.793 21.667l20.206 11.666 20.206-11.666L49.999 10zm-6.875 11.667 6.875-3.969 6.873 3.969-6.873 3.968-6.875-3.968zM69.999 66.904V90L90 78.451V55.357L69.999 66.904zm13.335 7.7-6.667 3.849v-7.699l6.667-3.848v7.698z"/><path fill="#8BC34A" d="m70.209 29.365 13.125 7.578V51.51l-6.667 3.847V40.792l-13.126-7.579z"/></svg>